<svg width="200" height="24" viewBox="0 0 200 24" fill="none" xmlns="http://www.w3.org/2000/svg">
<g clip-path="url(#clip0_11_29283)">
<path d="M30.3969 0.612305V17.7461H37.2455V22.5825H24.6865V0.612305H30.3969Z" fill="#202740"/>
<path d="M37.2427 11.596C37.2427 9.96412 37.5448 8.4455 38.1463 7.03477C38.7478 5.62674 39.584 4.39673 40.6522 3.35015C41.7203 2.30087 42.9989 1.48086 44.4851 0.887438C45.9714 0.294014 47.6087 0 49.3944 0C51.18 0 52.7931 0.296712 54.2901 0.887438C55.7845 1.48086 57.0738 2.30087 58.1501 3.35015C59.229 4.39943 60.0679 5.62674 60.6694 7.03477C61.2709 8.4428 61.573 9.96412 61.573 11.596C61.573 13.228 61.2709 14.7493 60.6694 16.1573C60.0679 17.5653 59.2263 18.7953 58.1501 19.8446C57.0711 20.8939 55.7845 21.7139 54.2901 22.3073C52.7931 22.9008 51.1612 23.1948 49.3944 23.1948C47.6276 23.1948 45.9714 22.8981 44.4851 22.3073C42.9989 21.7139 41.7203 20.8939 40.6522 19.8446C39.584 18.7953 38.7478 17.568 38.1463 16.1573C37.5448 14.7493 37.2427 13.228 37.2427 11.596ZM43.2174 11.596C43.2174 12.47 43.3819 13.2765 43.7137 14.0156C44.0428 14.7547 44.4905 15.3966 45.0543 15.9388C45.618 16.4837 46.2735 16.9045 47.0207 17.2066C47.7679 17.5087 48.5609 17.6571 49.3944 17.6571C50.2279 17.6571 51.0209 17.506 51.7681 17.2066C52.5152 16.9045 53.1761 16.4837 53.7506 15.9388C54.3225 15.3966 54.7756 14.7547 55.1047 14.0156C55.4338 13.2765 55.601 12.4727 55.601 11.596C55.601 10.7194 55.4365 9.91557 55.1047 9.17649C54.7729 8.43741 54.3225 7.79813 53.7506 7.25326C53.1761 6.71108 52.5179 6.28759 51.7681 5.98549C51.0209 5.68338 50.2279 5.53503 49.3944 5.53503C48.5609 5.53503 47.7679 5.68608 47.0207 5.98549C46.2735 6.28759 45.618 6.70839 45.0543 7.25326C44.4905 7.79813 44.0428 8.43741 43.7137 9.17649C43.3819 9.91557 43.2174 10.7221 43.2174 11.596Z" fill="#202740"/>
<path d="M71.5994 10.2851H82.9338C82.9338 11.4504 82.8852 12.5105 82.7881 13.4599C82.691 14.4121 82.4968 15.2969 82.2055 16.1115C81.7982 17.2579 81.2452 18.2721 80.5439 19.1568C79.8453 20.0416 79.0226 20.7779 78.0812 21.3714C77.1398 21.9648 76.104 22.4152 74.9792 22.7254C73.8517 23.0356 72.6675 23.1921 71.424 23.1921C69.7139 23.1921 68.1548 22.9116 66.7468 22.3478C65.3387 21.7841 64.1276 20.9937 63.1188 19.9714C62.1073 18.9518 61.3223 17.7272 60.7586 16.3003C60.1948 14.8734 59.9143 13.2954 59.9143 11.5664C59.9143 9.83736 60.1921 8.28906 60.7451 6.85945C61.2981 5.43254 62.0857 4.21332 63.1053 3.2018C64.1249 2.19298 65.3549 1.40535 66.7926 0.841595C68.2303 0.277842 69.8326 -0.00268555 71.5994 -0.00268555C73.8921 -0.00268555 75.9017 0.493633 77.6307 1.48357C79.3597 2.47351 80.73 4.00832 81.7388 6.088L76.3198 8.33222C75.8154 7.12919 75.1599 6.26333 74.3534 5.74004C73.5469 5.21675 72.6298 4.9524 71.5994 4.9524C70.7443 4.9524 69.9674 5.11155 69.2688 5.43254C68.5702 5.75352 67.9714 6.20938 67.4778 6.80281C66.9814 7.39623 66.593 8.10834 66.3125 8.94453C66.032 9.78071 65.889 10.7113 65.889 11.7417C65.889 12.675 66.0104 13.5382 66.2532 14.3339C66.4959 15.1296 66.8601 15.8202 67.3456 16.4028C67.8311 16.9854 68.4326 17.4359 69.1528 17.7569C69.8703 18.0779 70.7065 18.237 71.6587 18.237C72.2225 18.237 72.7673 18.175 73.2906 18.0482C73.8139 17.9214 74.286 17.7191 74.7041 17.4359C75.1221 17.1554 75.4674 16.7912 75.7371 16.3434C76.0096 15.8957 76.193 15.3535 76.2901 14.7115H71.5994V10.2824V10.2851Z" fill="#202740"/>
<path d="M90.141 0.612305V22.5825H84.4307V0.612305H90.141Z" fill="#202740"/>
<path d="M105.157 5.44871H98.2816V9.11984H104.548V13.9562H98.2816V22.5825H92.5713V0.612305H105.16V5.44871H105.157Z" fill="#202740"/>
<path d="M112.376 0.612305V12.559C112.376 13.201 112.4 13.8564 112.448 14.5254C112.497 15.1943 112.643 15.8013 112.885 16.3461C113.128 16.891 113.511 17.3334 114.037 17.6732C114.561 18.0131 115.3 18.183 116.252 18.183C117.204 18.183 117.938 18.0131 118.453 17.6732C118.968 17.3334 119.351 16.891 119.605 16.3461C119.858 15.8013 120.007 15.1943 120.055 14.5254C120.104 13.8537 120.128 13.1983 120.128 12.559V0.612305H125.811V13.3466C125.811 16.7669 125.029 19.262 123.465 20.8346C121.9 22.4071 119.497 23.1948 116.252 23.1948C113.007 23.1948 110.598 22.4071 109.025 20.8346C107.453 19.262 106.665 16.7642 106.665 13.3466V0.612305H112.376Z" fill="#202740"/>
<path d="M136.212 5.44871V22.5825H130.502V5.44871H125.811V0.612305H140.906V5.44871H136.215H136.212Z" fill="#202740"/>
<path d="M146.616 0.612305V12.559C146.616 13.201 146.64 13.8564 146.689 14.5254C146.737 15.1943 146.883 15.8013 147.126 16.3461C147.369 16.891 147.752 17.3334 148.278 17.6732C148.801 18.0131 149.54 18.183 150.492 18.183C151.444 18.183 152.178 18.0131 152.693 17.6732C153.209 17.3334 153.592 16.891 153.845 16.3461C154.099 15.8013 154.247 15.1943 154.296 14.5254C154.344 13.8537 154.368 13.1983 154.368 12.559V0.612305H160.052V13.3466C160.052 16.7669 159.27 19.262 157.705 20.8346C156.141 22.4071 153.737 23.1948 150.492 23.1948C147.247 23.1948 144.839 22.4071 143.266 20.8346C141.693 19.262 140.906 16.7642 140.906 13.3466V0.612305H146.616Z" fill="#202740"/>
<path d="M180.037 22.5825H172.926L167.478 14.1316V22.5825H161.767V0.612305H170.655C171.88 0.612305 172.948 0.793029 173.86 1.15178C174.771 1.51053 175.524 2.00146 176.117 2.62455C176.711 3.24765 177.156 3.96515 177.458 4.77976C177.76 5.59706 177.908 6.47102 177.908 7.40161C177.908 9.07129 177.504 10.4281 176.7 11.4666C175.894 12.5051 174.704 13.2091 173.131 13.5786L180.037 22.5825ZM167.478 10.4308H168.557C169.684 10.4308 170.547 10.1988 171.149 9.73215C171.75 9.2655 172.052 8.59655 172.052 7.7226C172.052 6.84865 171.75 6.1797 171.149 5.71305C170.547 5.2464 169.681 5.01443 168.557 5.01443H167.478V10.4335V10.4308Z" fill="#202740"/>
<path d="M193.542 5.44871H186.753V9.11984H193.165V13.9562H186.753V17.7434H193.542V22.5798H181.043V0.612305H193.542V5.44871Z" fill="#202740"/>
<path d="M0 6.08799V17.0421L9.48669 22.5204L18.9734 17.0421V6.08799L9.48669 0.612305L0 6.08799Z" fill="#00DA74"/>
</g>
<defs>
<clipPath id="clip0_11_29283">
<rect width="200" height="23.1948" fill="white"/>
</clipPath>
</defs>
</svg>
